# xmcd
#
# Track frame offsets: 
#        150
#        27842
#        46087
#        87410
#        105040
#        131735
#        158577
#
# Disc length: 2364 seconds
#
# Revision: 0
# Processed by: cddbd v1.5.1PL2 Copyright (c) Steve Scherf et al.
# Submitted via: ExactAudioCopy v0.95b3
#
DISCID=45093a07
DTITLE=Gary B.B. Coleman - Too Much Weekend
DYEAR=1992
DGENRE=Blues
TTITLE0=Too Much Weekend
TTITLE1=The Elk Slide
TTITLE2=The Sky is Crying
TTITLE3=Uncle Bud
TTITLE4=Welfare Cadillac
TTITLE5=Crosscut Saw
TTITLE6=Neckbone
EXTD=
EXTT0=
EXTT1=
EXTT2=
EXTT3=
EXTT4=
EXTT5=
EXTT6=
PLAYORDER=
